HIERARCHY
ROOT hip
{
  OFFSET 0 0 0
  CHANNELS 6 Xposition Yposition Zposition Zrotation Yrotation Xrotation
  JOINT abdomen
  {
    OFFSET 0 20.6881 -0.73152
    CHANNELS 3 Zrotation Xrotation Yrotation
    JOINT chest
    {
      OFFSET 0 11.7043 -0.48768
      CHANNELS 3 Zrotation Xrotation Yrotation
      JOINT neck
      {
        OFFSET 0 22.1894 -2.19456
        CHANNELS 3 Zrotation Xrotation Yrotation
        JOINT head
        {
          OFFSET -0.24384 7.07133 1.2192
          CHANNELS 3 Zrotation Xrotation Yrotation
          JOINT leftEye
          {
            OFFSET 4.14528 8.04674 8.04672
            CHANNELS 3 Zrotation Xrotation Yrotation
            End Site
            {
              OFFSET 1 0 0
            }
          }
          JOINT rightEye
          {
            OFFSET -3.6576 8.04674 8.04672
            CHANNELS 3 Zrotation Xrotation Yrotation
            End Site
            {
              OFFSET 1 0 0
            }
          }
        }
      }
      JOINT rCollar
      {
        OFFSET -2.68224 19.2634 -4.8768
        CHANNELS 3 Zrotation Xrotation Yrotation
        JOINT rShldr
        {
          OFFSET -8.77824 -1.95073 1.46304
          CHANNELS 3 Zrotation Xrotation Yrotation
          JOINT rForeArm
          {
            OFFSET -28.1742 -1.7115 0.48768
            CHANNELS 3 Zrotation Xrotation Yrotation
            JOINT rHand
            {
              OFFSET -22.5879 0.773209 7.07136
              CHANNELS 3 Zrotation Xrotation Yrotation
              JOINT rThumb1
              {
                OFFSET -1.2192 -0.487915 3.41376
                CHANNELS 3 Zrotation Xrotation Yrotation
                JOINT rThumb2
                {
                  OFFSET -3.37035 -0.52449 3.41376
                  CHANNELS 3 Zrotation Xrotation Yrotation
                  End Site
                  {
                    OFFSET -1.78271 -1.18214 1.43049
                  }
                }
              }
              JOINT rIndex1
              {
                OFFSET -7.75947 0.938293 5.60832
                CHANNELS 3 Zrotation Xrotation Yrotation
                JOINT rIndex2
                {
                  OFFSET -2.54057 -0.884171 1.56538
                  CHANNELS 3 Zrotation Xrotation Yrotation
                  End Site
                  {
                    OFFSET -1.62519 -0.234802 1.16502
                  }
                }
              }
              JOINT rMid1
              {
                OFFSET -8.24714 1.18213 3.41376
                CHANNELS 3 Zrotation Xrotation Yrotation
                JOINT rMid2
                {
                  OFFSET -3.10165 -0.590103 1.0647
                  CHANNELS 3 Zrotation Xrotation Yrotation
                  End Site
                  {
                    OFFSET -2.48547 -0.328903 0.83742
                  }
                }
              }
              JOINT rRing1
              {
                OFFSET -8.82822 0.546677 1.51678
                CHANNELS 3 Zrotation Xrotation Yrotation
                JOINT rRing2
                {
                  OFFSET -2.60934 -0.819778 -0.0198488
                  CHANNELS 3 Zrotation Xrotation Yrotation
                  End Site
                  {
                    OFFSET -2.33842 -0.294052 0.168128
                  }
                }
              }
              JOINT rPinky1
              {
                OFFSET -8.27202 -0.0477905 -0.4584
                CHANNELS 3 Zrotation Xrotation Yrotation
                JOINT rPinky2
                {
                  OFFSET -1.82734 -0.647385 -0.700984
                  CHANNELS 3 Zrotation Xrotation Yrotation
                  End Site
                  {
                    OFFSET -1.69225 -0.51767 -0.607171
                  }
                }
              }
            }
          }
        }
      }
      JOINT lCollar
      {
        OFFSET 2.68224 19.2634 -4.8768
        CHANNELS 3 Zrotation Xrotation Yrotation
        JOINT lShldr
        {
          OFFSET 8.77824 -1.95073 1.46304
          CHANNELS 3 Zrotation Xrotation Yrotation
          JOINT lForeArm
          {
            OFFSET 28.1742 -1.7115 0.48768
            CHANNELS 3 Zrotation Xrotation Yrotation
            JOINT lHand
            {
              OFFSET 22.5879 0.773209 7.07136
              CHANNELS 3 Zrotation Xrotation Yrotation
              JOINT lThumb1
              {
                OFFSET 1.2192 -0.487915 3.41376
                CHANNELS 3 Zrotation Xrotation Yrotation
                JOINT lThumb2
                {
                  OFFSET 3.37035 -0.52449 3.41376
                  CHANNELS 3 Zrotation Xrotation Yrotation
                  End Site
                  {
                    OFFSET 1.78271 -1.18214 1.43049
                  }
                }
              }
              JOINT lIndex1
              {
                OFFSET 7.75947 0.938293 5.60832
                CHANNELS 3 Zrotation Xrotation Yrotation
                JOINT lIndex2
                {
                  OFFSET 2.54057 -0.884171 1.56538
                  CHANNELS 3 Zrotation Xrotation Yrotation
                  End Site
                  {
                    OFFSET 1.62519 -0.234802 1.16502
                  }
                }
              }
              JOINT lMid1
              {
                OFFSET 8.24714 1.18213 3.41376
                CHANNELS 3 Zrotation Xrotation Yrotation
                JOINT lMid2
                {
                  OFFSET 3.10165 -0.590103 1.0647
                  CHANNELS 3 Zrotation Xrotation Yrotation
                  End Site
                  {
                    OFFSET 2.48547 -0.328903 0.83742
                  }
                }
              }
              JOINT lRing1
              {
                OFFSET 8.82822 0.546677 1.51678
                CHANNELS 3 Zrotation Xrotation Yrotation
                JOINT lRing2
                {
                  OFFSET 2.60934 -0.819778 -0.0198488
                  CHANNELS 3 Zrotation Xrotation Yrotation
                  End Site
                  {
                    OFFSET 2.33842 -0.294052 0.168128
                  }
                }
              }
              JOINT lPinky1
              {
                OFFSET 8.27202 -0.0477905 -0.4584
                CHANNELS 3 Zrotation Xrotation Yrotation
                JOINT lPinky2
                {
                  OFFSET 1.82734 -0.647385 -0.700984
                  CHANNELS 3 Zrotation Xrotation Yrotation
                  End Site
                  {
                    OFFSET 1.69225 -0.51767 -0.607171
                  }
                }
              }
            }
          }
        }
      }
    }
  }
  JOINT rButtock
  {
    OFFSET -8.77824 4.35084 1.2192
    CHANNELS 3 Zrotation Xrotation Yrotation
    JOINT rThigh
    {
      OFFSET 0 -1.70687 -2.19456
      CHANNELS 3 Zrotation Xrotation Yrotation
      JOINT rShin
      {
        OFFSET 0 -36.8199 0.73152
        CHANNELS 3 Zrotation Xrotation Yrotation
        JOINT rFoot
        {
          OFFSET 0.73152 -45.1104 -5.12064
          CHANNELS 3 Zrotation Xrotation Yrotation
          End Site
          {
            OFFSET -1.1221 -3.69964 12.103
          }
        }
      }
    }
  }
  JOINT lButtock
  {
    OFFSET 8.77824 4.35084 1.2192
    CHANNELS 3 Zrotation Xrotation Yrotation
    JOINT lThigh
    {
      OFFSET 0 -1.70687 -2.19456
      CHANNELS 3 Zrotation Xrotation Yrotation
      JOINT lShin
      {
        OFFSET 0 -36.8199 0.73152
        CHANNELS 3 Zrotation Xrotation Yrotation
        JOINT lFoot
        {
          OFFSET -0.73152 -45.1104 -5.12064
          CHANNELS 3 Zrotation Xrotation Yrotation
          End Site
          {
            OFFSET 1.1221 -3.69964 12.103
          }
        }
      }
    }
  }
}
MOTION
Frames:	6
Frame Time:	0.00833333
-15.8133 85.2982 3.93764 0.0 0.0 0.0 0.984349 -0.00436097 0.0272512 0.271543 -0.00455357 0.0470442 -2.03493e-14 0.0 1.24242e-17 -6.0707e-14 3.18055e-15 -5.12492e-17 -0.0 0.0 0.0 -0.0 0.0 0.0 -1.00402e-14 2.07714e-17 1.49089e-16 -2.10419e-13 7.64079e-16 3.97569e-16 -3.65391e-12 1.10981e-12 3.18055e-15 -4.18337e-11 -1.00836e-12 -5.725e-14 -9.86803e-11 2.13708e-13 -9.54166e-14 -1.70425e-10 3.65764e-13 -1.53462e-13 -9.86791e-11 2.11507e-13 -9.54166e-14 7.73091 5.47488 0.417314 -9.86807e-11 2.13694e-13 -8.90555e-14 2.90554 0.965183 0.102902 -9.86805e-11 2.13793e-13 -8.82604e-14 10.2786 0.731801 0.0259123 -9.86869e-11 2.16675e-13 -7.63333e-14 2.22167 -0.733487 -0.20892 -1.01372e-14 2.23244e-17 -1.49089e-16 -2.14312e-13 7.64079e-16 -1.39149e-15 -3.65664e-12 -1.07861e-12 6.99722e-14 -4.18404e-11 1.17792e-12 -1.08139e-13 -9.86951e-11 2.08773e-13 -8.26944e-14 -1.70428e-10 3.59403e-13 -1.39944e-13 -9.86998e-11 2.08724e-13 -6.99722e-14 -7.73091 5.47488 -0.417314 -9.86942e-11 2.08227e-13 -8.26944e-14 -2.90554 0.965183 -0.102902 -9.86981e-11 2.09022e-13 -8.34896e-14 -10.2786 0.731801 -0.0259123 -9.86882e-11 2.11109e-13 -9.85972e-14 -2.22167 -0.733487 0.20892 -2.03217e-16 0.0 -3.88251e-19 1.24891 -5.45296 -0.109168 6.85786e-05 4.32231 0.0238742 -0.510771 1.12952 0.0812468 2.03217e-16 0.0 3.88251e-19 0.249761 -1.91924 0.0129217 0.00928299 -2.07855 0.0766785 0.496158 3.99654 -0.137931
-9.84653 84.0491 -4.89297 140.314 84.9273 144.917 -0.726682 -1.24085 -0.227673 1.47016 1.05938 -0.0359911 -0.643416 -2.37801 0.462597 -0.0166876 1.97718 1.28908 -0.0 0.0 0.0 -0.0 0.0 0.0 3.22875e-14 3.58933e-13 4.73795e-14 21.5029 4.41939 1.46972 -3.43343 -1.43069 5.4951 0.00215268 -1.03986 -0.146058 -1.62322e-10 -1.6116e-10 1.67521e-10 -2.79994e-10 -2.79493e-10 2.89539e-10 -1.62319e-10 -1.61161e-10 1.67518e-10 7.73091 5.47488 0.417314 -1.62321e-10 -1.6116e-10 1.67526e-10 2.90554 0.965183 0.102902 -1.62319e-10 -1.61159e-10 1.67526e-10 10.2786 0.731801 0.0259123 -1.62326e-10 -1.61156e-10 1.67535e-10 2.22167 -0.733487 -0.20892 3.22179e-14 3.58934e-13 4.71279e-14 -23.1271 5.51417 -1.96393 3.02022 -1.19753 -4.89013 8.21285e-05 -0.121099 0.0170186 -2.34741e-10 -1.31253e-10 -2.42415e-10 -4.05883e-10 -2.27602e-10 -4.18807e-10 -2.34748e-10 -1.31252e-10 -2.424e-10 -7.73091 5.47488 -0.417314 -2.34743e-10 -1.31253e-10 -2.42414e-10 -2.90554 0.965183 -0.102902 -2.34747e-10 -1.31253e-10 -2.42415e-10 -10.2786 0.731801 -0.0259123 -2.34734e-10 -1.31251e-10 -2.42429e-10 -2.22167 -0.733487 0.20892 -2.03217e-16 0.0 -3.88251e-19 -1.76155 -6.62093 0.36355 0.0235899 8.30343 0.12844 -1.14524 -3.57655 -7.23571 2.03217e-16 0.0 3.88251e-19 0.882556 -4.15794 -2.19913 -0.0249937 3.81503 -0.106927 1.13025 -1.87026 6.05114
-9.85033 84.0488 -4.90729 137.083 84.9427 141.703 -2.55265 -2.54963 -0.501688 2.74385 2.18585 -0.1251 -1.28434 -4.88948 0.954605 -0.126084 4.06199 2.65819 -0.0 0.0 0.0 -0.0 0.0 0.0 7.84643e-14 7.37469e-13 9.98738e-14 43.9773 9.09946 3.06523 -6.75684 -2.89335 11.3004 -0.00139018 -2.15624 -0.303031 -2.37719e-10 -3.55805e-10 3.30693e-10 -4.09845e-10 -6.17018e-10 5.71568e-10 -2.37715e-10 -3.55804e-10 3.30687e-10 7.73091 5.47488 0.417314 -2.37718e-10 -3.55804e-10 3.30697e-10 2.90554 0.965183 0.102902 -2.37712e-10 -3.55803e-10 3.30696e-10 10.2786 0.731801 0.0259123 -2.37721e-10 -3.558e-10 3.30702e-10 2.22167 -0.733487 -0.20892 7.84254e-14 7.3747e-13 9.9675e-14 -47.1573 11.3392 -4.10054 5.9945 -2.43606 -10.0712 0.000326256 -0.276174 0.0388121 -4.01264e-10 -2.7554e-10 -4.81126e-10 -6.93975e-10 -4.77818e-10 -8.31171e-10 -4.01273e-10 -2.75538e-10 -4.81109e-10 -7.73091 5.47488 -0.417314 -4.01268e-10 -2.7554e-10 -4.81124e-10 -2.90554 0.965183 -0.102902 -4.01272e-10 -2.7554e-10 -4.81125e-10 -10.2786 0.731801 -0.0259123 -4.01257e-10 -2.75538e-10 -4.81137e-10 -2.22167 -0.733487 0.20892 -2.03217e-16 0.0 -3.88251e-19 -4.92253 -7.85026 0.866822 0.032343 12.5157 0.242273 -3.12378 -8.32625 -15.111 2.03217e-16 0.0 3.88251e-19 1.3628 -6.50881 -4.55122 -0.0195967 10.0436 -0.304867 3.17349 -7.88638 12.7008
-9.85313 84.0496 -4.91613 135.494 84.9393 140.117 -4.18181 -3.71355 -0.738912 3.87667 3.18723 -0.202356 -1.8143 -7.13217 1.39741 -0.317959 5.9195 3.88569 -0.0 0.0 0.0 -0.0 0.0 0.0 1.16943e-13 1.07676e-12 1.4184e-13 63.8134 13.2228 4.51602 -9.48783 -4.13441 16.5244 -0.00946668 -3.11949 -0.438752 -2.89605e-10 -4.83908e-10 5.02754e-10 -4.99133e-10 -8.39211e-10 8.68925e-10 -2.896e-10 -4.83906e-10 5.02745e-10 7.73091 5.47488 0.417314 -2.89603e-10 -4.83906e-10 5.02757e-10 2.90554 0.965183 0.102902 -2.89595e-10 -4.83905e-10 5.02755e-10 10.2786 0.731801 0.0259123 -2.89605e-10 -4.83902e-10 5.02759e-10 2.22167 -0.733487 -0.20892 1.16928e-13 1.07676e-12 1.41682e-13 -68.2082 16.4631 -6.11616 8.45389 -3.48806 -14.695 0.000462211 -0.363297 0.0510568 -5.06833e-10 -3.94176e-10 -7.2708e-10 -8.76792e-10 -6.83526e-10 -1.25614e-09 -5.06844e-10 -3.94173e-10 -7.27061e-10 -7.73091 5.47488 -0.417314 -5.06839e-10 -3.94176e-10 -7.27077e-10 -2.90554 0.965183 -0.102902 -5.06844e-10 -3.94176e-10 -7.27078e-10 -10.2786 0.731801 -0.0259123 -5.06826e-10 -3.94175e-10 -7.27089e-10 -2.22167 -0.733487 0.20892 -2.03217e-16 0.0 -3.88251e-19 -7.72397 -8.95491 1.31678 0.025326 16.2654 0.347581 -5.9912 -12.1225 -22.3514 2.03217e-16 0.0 3.88251e-19 1.62563 -8.58669 -6.68107 0.0228452 15.6017 -0.491435 6.20588 -12.9243 18.9156
-9.85596 84.0481 -4.92379 135.004 85.0193 139.638 -5.29463 -4.51557 -0.88276 4.65051 3.87591 -0.249673 -2.14892 -8.70469 1.70808 -0.526644 7.22025 4.74165 -0.0 0.0 0.0 -0.0 0.0 0.0 1.36175e-13 1.31793e-12 1.57487e-13 77.5639 15.9896 5.49928 -11.2977 -4.96815 20.2586 -0.0168195 -3.69999 -0.52073 -2.82713e-10 -4.45656e-10 6.97038e-10 -4.87012e-10 -7.73078e-10 1.2046e-09 -2.82707e-10 -4.45654e-10 6.97028e-10 7.73091 5.47488 0.417314 -2.82711e-10 -4.45654e-10 6.97041e-10 2.90554 0.965183 0.102902 -2.82702e-10 -4.45653e-10 6.97038e-10 10.2786 0.731801 0.0259123 -2.82713e-10 -4.4565e-10 6.97041e-10 2.22167 -0.733487 -0.20892 1.36169e-13 1.31793e-12 1.57338e-13 -82.6588 19.9099 -7.61271 10.0536 -4.17404 -17.9021 9.65261e-05 -0.280543 0.0394281 -4.6002e-10 -4.48684e-10 -9.9114e-10 -7.96418e-10 -7.77967e-10 -1.71262e-09 -4.60032e-10 -4.4868e-10 -9.91121e-10 -7.73091 5.47488 -0.417314 -4.60027e-10 -4.48683e-10 -9.91137e-10 -2.90554 0.965183 -0.102902 -4.60031e-10 -4.48684e-10 -9.91138e-10 -10.2786 0.731801 -0.0259123 -4.60013e-10 -4.48682e-10 -9.91147e-10 -2.22167 -0.733487 0.20892 -2.03217e-16 0.0 -3.88251e-19 -9.66779 -9.74946 1.62739 0.01165 18.8591 0.422846 -8.54824 -14.3836 -27.5198 2.03217e-16 0.0 3.88251e-19 1.71273 -10.026 -8.20486 0.0750518 19.4839 -0.631702 9.03881 -16.191 23.5179
-9.85749 84.042 -4.90288 134.62 85.2794 139.287 -5.66204 -4.80599 -0.887348 4.91399 4.1211 -0.252521 -2.24722 -9.34478 1.82504 -0.677059 7.75343 5.06134 -0.0 0.0 0.0 -0.0 0.0 0.0 1.25859e-13 1.41083e-12 1.32237e-13 83.0451 16.8569 5.7331 -12.0689 -5.34148 21.9076 -0.017829 -3.71933 -0.523493 -1.75326e-10 -1.10134e-10 9.33835e-10 -3.01522e-10 -1.91717e-10 1.61356e-09 -1.7532e-10 -1.10131e-10 9.33826e-10 7.73091 5.47488 0.417314 -1.75324e-10 -1.10132e-10 9.33838e-10 2.90554 0.965183 0.102902 -1.75316e-10 -1.10131e-10 9.33838e-10 10.2786 0.731801 0.0259123 -1.75327e-10 -1.10128e-10 9.3384e-10 2.22167 -0.733487 -0.20892 1.25838e-13 1.41083e-12 1.32048e-13 -88.2814 21.0464 -8.22158 10.6315 -4.41594 -19.1083 -0.000671786 0.0740124 -0.0103964 -1.4443e-10 -3.95931e-10 -1.29546e-09 -2.51778e-10 -6.86303e-10 -2.23907e-09 -1.44442e-10 -3.95927e-10 -1.29545e-09 -7.73091 5.47488 -0.417314 -1.44437e-10 -3.9593e-10 -1.29546e-09 -2.90554 0.965183 -0.102902 -1.4444e-10 -3.95931e-10 -1.29546e-09 -10.2786 0.731801 -0.0259123 -1.44423e-10 -3.9593e-10 -1.29547e-09 -2.22167 -0.733487 0.20892 -2.03217e-16 0.0 -3.88251e-19 -10.4269 -10.1139 1.74087 0.00409432 19.8258 0.449969 -9.58962 -15.0893 -29.4875 2.03217e-16 0.0 3.88251e-19 1.72068 -10.604 -8.85259 0.100749 21.0267 -0.693029 10.4067 -17.5024 25.4968
